<svg width="2789" height="595" viewBox="0 0 2789 595" fill="none" xmlns="http://www.w3.org/2000/svg">
<path d="M2693.16 456.22V139.069H2778.11V456.22H2693.16ZM2735.95 95.649C2720.85 95.649 2708.26 91.2441 2698.19 82.4343C2688.55 73.205 2683.72 61.6684 2683.72 47.8245C2683.72 33.9805 2688.55 22.6537 2698.19 13.8439C2708.26 4.61464 2720.85 0 2735.95 0C2751.47 0 2764.06 4.61464 2773.71 13.8439C2783.78 22.6537 2788.81 33.9805 2788.81 47.8245C2788.81 61.6684 2783.78 73.205 2773.71 82.4343C2764.06 91.2441 2751.47 95.649 2735.95 95.649Z" fill="#111F35"/>
<path d="M2523.51 456.22V3.14636H2608.46V456.22H2523.51Z" fill="#111F35"/>
<path d="M2355.74 456.22V3.14636H2440.7V456.22H2355.74Z" fill="#111F35"/>
<path d="M2129.48 463.771C2097.6 463.771 2069.28 457.059 2044.53 443.635C2020.2 429.791 2001.11 410.703 1987.27 386.371C1973.84 361.62 1967.13 333.093 1967.13 300.791C1967.13 267.649 1973.84 238.493 1987.27 213.322C2001.11 187.732 2020.2 167.805 2044.53 153.542C2068.86 138.859 2097.18 131.517 2129.48 131.517C2160.95 131.517 2188.42 138.439 2211.92 152.283C2235.41 166.127 2253.66 184.795 2266.66 208.288C2279.67 231.781 2286.17 258.42 2286.17 288.205C2286.17 292.4 2286.17 297.225 2286.17 302.679C2286.17 307.713 2285.75 312.957 2284.91 318.41H2027.54V266.81H2200.59C2199.33 246.254 2191.99 230.103 2178.57 218.356C2165.56 206.61 2149.2 200.737 2129.48 200.737C2115.22 200.737 2102 204.093 2089.84 210.805C2077.67 217.098 2068.02 226.956 2060.89 240.381C2054.18 253.805 2050.82 270.796 2050.82 291.352V309.6C2050.82 326.801 2053.97 341.903 2060.26 354.908C2066.98 367.493 2076.2 377.352 2087.95 384.484C2099.7 391.196 2113.33 394.552 2128.85 394.552C2144.38 394.552 2157.17 391.196 2167.24 384.484C2177.73 377.771 2185.49 369.171 2190.52 358.684H2277.36C2271.49 378.401 2261.63 396.23 2247.79 412.171C2233.94 428.113 2216.95 440.698 2196.81 449.928C2176.68 459.157 2154.23 463.771 2129.48 463.771Z" fill="#111F35"/>
<path d="M1744.74 594.66V522.294H1770.54C1783.96 522.294 1793.4 519.567 1798.86 514.113C1804.73 508.66 1807.67 499.85 1807.67 487.684V139.069H1892.62V487.055C1892.62 513.064 1888 533.83 1878.77 549.352C1869.96 565.294 1857.38 576.83 1841.02 583.962C1824.66 591.094 1805.36 594.66 1783.12 594.66H1744.74ZM1850.46 95.649C1834.93 95.649 1822.35 91.2441 1812.7 82.4343C1803.05 73.205 1798.23 61.6684 1798.23 47.8245C1798.23 33.9805 1803.05 22.6537 1812.7 13.8439C1822.35 4.61464 1834.93 0 1850.46 0C1865.98 0 1878.56 4.61464 1888.21 13.8439C1897.86 22.6537 1902.69 33.9805 1902.69 47.8245C1902.69 61.6684 1897.86 73.205 1888.21 82.4343C1878.56 91.2441 1865.98 95.649 1850.46 95.649Z" fill="#111F35"/>
<path d="M1570.21 463.771C1540 463.771 1512.74 456.85 1488.4 443.006C1464.49 428.742 1445.4 409.235 1431.14 384.484C1417.3 359.313 1410.38 330.576 1410.38 298.274C1410.38 265.132 1417.3 236.186 1431.14 211.434C1445.4 186.264 1464.7 166.756 1489.03 152.912C1513.37 138.649 1540.63 131.517 1570.84 131.517C1601.46 131.517 1628.73 138.649 1652.64 152.912C1676.98 166.756 1696.06 186.264 1709.91 211.434C1724.17 236.186 1731.3 264.922 1731.3 297.644C1731.3 330.366 1724.17 359.313 1709.91 384.484C1696.06 409.235 1676.98 428.742 1652.64 443.006C1628.31 456.85 1600.83 463.771 1570.21 463.771ZM1570.21 390.147C1584.47 390.147 1597.06 386.791 1607.97 380.079C1619.29 373.366 1628.1 363.088 1634.4 349.244C1641.11 335.401 1644.46 318.201 1644.46 297.644C1644.46 277.088 1641.11 260.098 1634.4 246.674C1628.1 232.83 1619.29 222.552 1607.97 215.839C1597.06 208.708 1584.68 205.142 1570.84 205.142C1557.41 205.142 1545.04 208.708 1533.71 215.839C1522.39 222.552 1513.37 232.83 1506.65 246.674C1500.36 260.098 1497.21 277.088 1497.21 297.644C1497.21 318.201 1500.36 335.401 1506.65 349.244C1513.37 363.088 1522.18 373.366 1533.08 380.079C1544.41 386.791 1556.79 390.147 1570.21 390.147Z" fill="#111F35"/>
<path d="M1167.88 456.22V139.068H1243.39L1251.57 197.591C1259.12 183.747 1268.56 172 1279.89 162.351C1291.63 152.703 1304.85 145.151 1319.53 139.698C1334.63 134.244 1351.2 131.517 1369.24 131.517V221.503H1340.3C1327.71 221.503 1315.96 222.971 1305.06 225.908C1294.57 228.844 1285.34 233.669 1277.37 240.381C1269.4 246.674 1263.31 255.483 1259.12 266.81C1254.92 278.137 1252.83 292.4 1252.83 309.6V456.22H1167.88Z" fill="#111F35"/>
<path d="M755.532 594.66V139.068H831.044L840.483 183.117C847.195 173.888 855.166 165.498 864.395 157.947C873.625 149.976 884.532 143.683 897.117 139.068C910.122 134.034 925.225 131.517 942.425 131.517C972.21 131.517 998.43 138.859 1021.08 153.542C1043.74 168.225 1061.57 188.151 1074.57 213.322C1088 238.074 1094.71 266.391 1094.71 298.274C1094.71 330.157 1088 358.684 1074.57 383.854C1061.15 408.606 1043.11 428.113 1020.45 442.376C997.801 456.64 972 463.771 943.054 463.771C919.561 463.771 899.215 459.576 882.015 451.186C865.234 442.376 851.39 430.42 840.483 415.318V594.66H755.532ZM922.917 389.518C939.698 389.518 954.381 385.742 966.966 378.191C979.971 370.64 990.04 359.942 997.171 346.098C1004.3 332.254 1007.87 316.313 1007.87 298.274C1007.87 280.235 1004.3 264.293 997.171 250.449C990.04 236.186 979.971 225.278 966.966 217.727C954.381 209.756 939.698 205.771 922.917 205.771C906.556 205.771 891.873 209.756 878.869 217.727C866.283 225.278 856.215 235.976 848.664 249.82C841.532 263.664 837.966 279.605 837.966 297.644C837.966 315.683 841.532 331.835 848.664 346.098C856.215 359.942 866.283 370.64 878.869 378.191C891.873 385.742 906.556 389.518 922.917 389.518Z" fill="#111F35"/>
<path d="M29 70V402.933C29 445.312 29 466.498 37.2472 482.686C44.5016 496.924 56.0773 508.498 70.3148 515.752C86.5009 524 107.69 524 150.067 524H483" stroke="#111F35" stroke-width="58" stroke-linecap="round" stroke-linejoin="round"/>
<path d="M155 395H483M328.843 192.6H238.1H155M155 293.8H405.569" stroke="#111F35" stroke-width="58" stroke-linecap="round" stroke-linejoin="round"/>
</svg>
