<svg width="2697" height="727" viewBox="0 0 2697 727" fill="none" xmlns="http://www.w3.org/2000/svg">
<path d="M236.565 0C373.994 0 478.215 124.076 454.667 259.652L443.272 325.261C438.907 350.393 438.907 376.091 443.272 401.223L454.667 466.832C478.214 602.41 373.993 726.485 236.567 726.485C132.427 726.485 42.3667 653.804 20.243 551.905C-6.74766 427.582 -6.74766 298.905 20.243 174.582C42.3639 72.6812 132.424 0 236.565 0Z" fill="#FF7C6E"/>
<path d="M288.008 720.487C271.55 724.395 254.34 726.485 236.567 726.485C132.427 726.485 42.3667 653.804 20.243 551.905C-6.74766 427.582 -6.74766 298.905 20.243 174.582C42.3639 72.6812 132.424 0 236.565 0C254.339 0 271.549 2.09148 288.007 5.99776C206.645 25.3475 141.289 89.8628 122.897 174.581C95.9067 298.903 95.9067 427.581 122.897 551.903C141.291 636.622 206.646 701.138 288.008 720.487Z" fill="#FF6554"/>
<path d="M339.552 102.656C339.552 124.462 321.875 142.139 300.069 142.139C278.263 142.139 260.586 124.462 260.586 102.656C260.586 80.8499 278.263 63.173 300.069 63.173C321.875 63.173 339.552 80.8499 339.552 102.656ZM363.242 157.931C350.16 157.931 339.552 168.538 339.552 181.621C339.552 194.705 350.158 205.312 363.242 205.312C376.324 205.312 386.932 194.705 386.932 181.621C386.932 168.538 376.324 157.931 363.242 157.931Z" fill="#FFA69F"/>
<path d="M2601.16 522.463V205.311H2686.11V522.463H2601.16ZM2643.95 161.892C2628.85 161.892 2616.26 157.487 2606.19 148.677C2596.55 139.448 2591.72 127.911 2591.72 114.067C2591.72 100.223 2596.55 88.8963 2606.19 80.0865C2616.26 70.8573 2628.85 66.2426 2643.95 66.2426C2659.47 66.2426 2672.06 70.8573 2681.71 80.0865C2691.78 88.8963 2696.81 100.223 2696.81 114.067C2696.81 127.911 2691.78 139.448 2681.71 148.677C2672.06 157.487 2659.47 161.892 2643.95 161.892Z" fill="#111F35"/>
<path d="M2431.51 522.463V69.389H2516.46V522.463H2431.51Z" fill="#111F35"/>
<path d="M2263.74 522.463V69.389H2348.7V522.463H2263.74Z" fill="#111F35"/>
<path d="M2037.48 530.014C2005.6 530.014 1977.28 523.302 1952.53 509.878C1928.2 496.034 1909.11 476.946 1895.27 452.614C1881.84 427.863 1875.13 399.336 1875.13 367.033C1875.13 333.892 1881.84 304.736 1895.27 279.565C1909.11 253.975 1928.2 234.048 1952.53 219.784C1976.86 205.101 2005.18 197.76 2037.48 197.76C2068.95 197.76 2096.42 204.682 2119.92 218.526C2143.41 232.37 2161.66 251.038 2174.66 274.531C2187.67 298.023 2194.17 324.663 2194.17 354.448C2194.17 358.643 2194.17 363.467 2194.17 368.921C2194.17 373.955 2193.75 379.199 2192.91 384.653H1935.54V333.053H2108.59C2107.33 312.497 2099.99 296.345 2086.57 284.599C2073.56 272.853 2057.2 266.979 2037.48 266.979C2023.22 266.979 2010 270.336 1997.84 277.048C1985.67 283.34 1976.02 293.199 1968.89 306.623C1962.18 320.048 1958.82 337.038 1958.82 357.594V375.843C1958.82 393.043 1961.97 408.146 1968.26 421.151C1974.98 433.736 1984.2 443.594 1995.95 450.726C2007.7 457.438 2021.33 460.794 2036.85 460.794C2052.38 460.794 2065.17 457.438 2075.24 450.726C2085.73 444.014 2093.49 435.414 2098.52 424.926H2185.36C2179.49 444.643 2169.63 462.473 2155.79 478.414C2141.94 494.355 2124.95 506.941 2104.81 516.17C2084.68 525.399 2062.23 530.014 2037.48 530.014Z" fill="#111F35"/>
<path d="M1652.74 660.902V588.536H1678.54C1691.96 588.536 1701.4 585.81 1706.86 580.356C1712.73 574.902 1715.67 566.092 1715.67 553.927V205.311H1800.62V553.297C1800.62 579.307 1796 600.073 1786.77 615.595C1777.96 631.536 1765.38 643.073 1749.02 650.205C1732.66 657.336 1713.36 660.902 1691.12 660.902H1652.74ZM1758.46 161.892C1742.93 161.892 1730.35 157.487 1720.7 148.677C1711.05 139.448 1706.23 127.911 1706.23 114.067C1706.23 100.223 1711.05 88.8963 1720.7 80.0865C1730.35 70.8573 1742.93 66.2426 1758.46 66.2426C1773.98 66.2426 1786.56 70.8573 1796.21 80.0865C1805.86 88.8963 1810.69 100.223 1810.69 114.067C1810.69 127.911 1805.86 139.448 1796.21 148.677C1786.56 157.487 1773.98 161.892 1758.46 161.892Z" fill="#111F35"/>
<path d="M1478.21 530.014C1448 530.014 1420.74 523.092 1396.4 509.248C1372.49 494.985 1353.4 475.477 1339.14 450.726C1325.3 425.555 1318.38 396.819 1318.38 364.516C1318.38 331.375 1325.3 302.428 1339.14 277.677C1353.4 252.506 1372.7 232.999 1397.03 219.155C1421.37 204.892 1448.63 197.76 1478.84 197.76C1509.46 197.76 1536.73 204.892 1560.64 219.155C1584.98 232.999 1604.06 252.506 1617.91 277.677C1632.17 302.428 1639.3 331.165 1639.3 363.887C1639.3 396.609 1632.17 425.555 1617.91 450.726C1604.06 475.477 1584.98 494.985 1560.64 509.248C1536.31 523.092 1508.83 530.014 1478.21 530.014ZM1478.21 456.39C1492.47 456.39 1505.06 453.033 1515.97 446.321C1527.29 439.609 1536.1 429.331 1542.4 415.487C1549.11 401.643 1552.46 384.443 1552.46 363.887C1552.46 343.331 1549.11 326.341 1542.4 312.916C1536.1 299.072 1527.29 288.794 1515.97 282.082C1505.06 274.95 1492.68 271.384 1478.84 271.384C1465.41 271.384 1453.04 274.95 1441.71 282.082C1430.39 288.794 1421.37 299.072 1414.65 312.916C1408.36 326.341 1405.21 343.331 1405.21 363.887C1405.21 384.443 1408.36 401.643 1414.65 415.487C1421.37 429.331 1430.18 439.609 1441.08 446.321C1452.41 453.033 1464.79 456.39 1478.21 456.39Z" fill="#111F35"/>
<path d="M1075.88 522.463V205.311H1151.39L1159.57 263.833C1167.12 249.989 1176.56 238.243 1187.89 228.594C1199.63 218.945 1212.85 211.394 1227.53 205.94C1242.63 200.487 1259.2 197.76 1277.24 197.76V287.745H1248.3C1235.71 287.745 1223.96 289.214 1213.06 292.15C1202.57 295.087 1193.34 299.911 1185.37 306.623C1177.4 312.916 1171.31 321.726 1167.12 333.053C1162.92 344.38 1160.83 358.643 1160.83 375.843V522.463H1075.88Z" fill="#111F35"/>
<path d="M663.532 660.902V205.311H739.044L748.483 249.36C755.195 240.131 763.166 231.74 772.395 224.189C781.625 216.218 792.532 209.926 805.117 205.311C818.122 200.277 833.225 197.76 850.425 197.76C880.21 197.76 906.43 205.101 929.083 219.784C951.737 234.467 969.566 254.394 982.571 279.565C995.996 304.316 1002.71 332.633 1002.71 364.516C1002.71 396.399 995.996 424.926 982.571 450.097C969.147 474.848 951.108 494.356 928.454 508.619C905.801 522.882 880 530.014 851.054 530.014C827.561 530.014 807.215 525.819 790.015 517.429C773.234 508.619 759.39 496.663 748.483 481.56V660.902H663.532ZM830.917 455.76C847.698 455.76 862.381 451.985 874.966 444.433C887.971 436.882 898.04 426.185 905.171 412.341C912.303 398.497 915.869 382.555 915.869 364.516C915.869 346.477 912.303 330.536 905.171 316.692C898.04 302.428 887.971 291.521 874.966 283.97C862.381 275.999 847.698 272.014 830.917 272.014C814.556 272.014 799.873 275.999 786.869 283.97C774.283 291.521 764.215 302.219 756.664 316.062C749.532 329.906 745.966 345.848 745.966 363.887C745.966 381.926 749.532 398.077 756.664 412.341C764.215 426.185 774.283 436.882 786.869 444.433C799.873 451.985 814.556 455.76 830.917 455.76Z" fill="#111F35"/>
</svg>
