<?xml version="1.0" encoding="UTF-8" standalone="no"?>
<!-- Created with Inkscape (http://www.inkscape.org/) -->

<svg
   xmlns:dc="http://purl.org/dc/elements/1.1/"
   xmlns:cc="http://creativecommons.org/ns#"
   xmlns:rdf="http://www.w3.org/1999/02/22-rdf-syntax-ns#"
   xmlns:svg="http://www.w3.org/2000/svg"
   xmlns="http://www.w3.org/2000/svg"
   xmlns:sodipodi="http://sodipodi.sourceforge.net/DTD/sodipodi-0.dtd"
   xmlns:inkscape="http://www.inkscape.org/namespaces/inkscape"
   width="310.30002"
   height="58.700001"
   viewBox="0 0 310.30001 58.700002"
   id="svg3500"
   version="1.1"
   inkscape:version="0.91 r13725"
   sodipodi:docname="addepar.svg">
  <defs
     id="defs3502" />
  <sodipodi:namedview
     id="base"
     pagecolor="#ffffff"
     bordercolor="#666666"
     borderopacity="1.0"
     inkscape:pageopacity="0.0"
     inkscape:pageshadow="2"
     inkscape:zoom="2.9259618"
     inkscape:cx="155.15001"
     inkscape:cy="29.350004"
     inkscape:document-units="px"
     inkscape:current-layer="layer1"
     showgrid="false"
     fit-margin-top="0"
     fit-margin-left="0"
     fit-margin-right="0"
     fit-margin-bottom="0"
     units="px"
     inkscape:window-width="1280"
     inkscape:window-height="744"
     inkscape:window-x="-4"
     inkscape:window-y="-4"
     inkscape:window-maximized="1" />
  <metadata
     id="metadata3505">
    <rdf:RDF>
      <cc:Work
         rdf:about="">
        <dc:format>image/svg+xml</dc:format>
        <dc:type
           rdf:resource="http://purl.org/dc/dcmitype/StillImage" />
        <dc:title></dc:title>
      </cc:Work>
    </rdf:RDF>
  </metadata>
  <g
     inkscape:label="Layer 1"
     inkscape:groupmode="layer"
     id="layer1"
     transform="translate(-311.24377,-453.69396)">
    <g
       id="g3542"
       transform="translate(290.94378,433.99396)">
      <path
         id="path3511"
         d="m 131,42.2 -3.5,8.6 7.1,0 -3.6,-8.6 z m 8.1,19.7 -2.4,-6 -11.2,0 -2.4,6 -6,0 11.4,-26.7 5.4,0 11.4,26.7 -6.2,0 z"
         inkscape:connector-curvature="0" />
      <g
         id="g3513">
	<path
   id="path3515"
   d="m 170.3,48.7 c 0,-4.7 -3.2,-8 -8,-8 l -4.5,0 0,16 4.5,0 c 4.7,0 8,-3.3 8,-8 l 0,0 z m -8,13.2 -10.3,0 0,-26.5 10.3,0 c 8.3,0 14.1,5.7 14.1,13.2 l 0,0.1 c 0,7.4 -5.8,13.2 -14.1,13.2"
   inkscape:connector-curvature="0" />

	<path
   id="path3517"
   d="m 203,48.7 c 0,-4.7 -3.2,-8 -8,-8 l -4.5,0 0,16 4.5,0 c 4.8,0 8,-3.3 8,-8 l 0,0 z m -8,13.2 -10.3,0 0,-26.5 10.3,0 c 8.3,0 14.1,5.7 14.1,13.2 l 0,0.1 c 0,7.4 -5.8,13.2 -14.1,13.2"
   inkscape:connector-curvature="0" />

</g>
      <polygon
         id="polygon3519"
         points="237.8,61.9 217.6,61.9 217.6,35.4 237.7,35.4 237.7,40.6 223.4,40.6 223.4,46 235.9,46 235.9,51.2 223.4,51.2 223.4,56.7 237.8,56.7 " />
      <g
         id="g3521">
	<path
   id="path3523"
   d="m 262.7,44.7 c 0,-2.6 -1.8,-4 -4.7,-4 l -4.5,0 0,8.1 4.6,0 c 2.9,0 4.6,-1.8 4.6,-4.1 l 0,0 z m -4.8,9.3 -4.4,0 0,8 -5.8,0 0,-26.6 10.8,0 c 6.3,0 10.2,3.8 10.2,9.2 l 0,0.1 c -0.1,6.1 -4.8,9.3 -10.8,9.3"
   inkscape:connector-curvature="0" />

</g>
      <path
         id="path3525"
         d="m 285.9,42.2 -3.5,8.6 7.1,0 -3.6,-8.6 z m 8,19.7 -2.4,-6 -11.2,0 -2.4,6 -6,0 11.4,-26.7 5.4,0 11.3,26.7 -6.1,0 z"
         inkscape:connector-curvature="0" />
      <g
         id="g3527">
	<path
   id="path3529"
   d="m 323.3,44.5 c 0,-2.5 -1.7,-3.8 -4.6,-3.8 l -5.7,0 0,7.6 5.9,0 c 2.8,0 4.4,-1.5 4.4,-3.8 l 0,0 z m -0.1,17.4 -5.7,-8.5 -4.5,0 0,8.5 -5.8,0 0,-26.5 12.1,0 c 6.3,0 10,3.3 10,8.8 l 0,0.1 c 0,4.3 -2.3,7 -5.7,8.2 l 6.5,9.5 -6.9,0 z"
   inkscape:connector-curvature="0" />

</g>
      <polygon
         id="polygon3531"
         points="83.4,20.2 46.9,77.9 20.8,77.9 57.4,20.2 "
         class="st0"
         style="fill:#88817f" />
      <polygon
         id="polygon3533"
         points="64,50.8 81.1,77.9 107.1,77.9 90.1,50.8 " />
    </g>
  </g>
  <style
     id="style3509"
     type="text/css">
	.st0{fill:#88817F;}
</style>
</svg>
