<svg xmlns="http://www.w3.org/2000/svg" viewBox="0 0 567.9 110" width="2272" height="440"><title>OneDrive</title><svg x="0" y="7.0" width="156.1" height="96" viewBox="0 0 1000 615"><defs><radialGradient id="a" cx="-446.23" cy="850.24" r="6.99" data-name="Безымянный градиент" fx="-446.23" fy="850.24" gradientTransform="matrix(28.87975 32.00675 53.69646 -48.39975 -32750.77 55564.7)" gradientUnits="userSpaceOnUse"><stop offset="0" stop-color="#4894fe"/><stop offset=".7" stop-color="#0934b3"/></radialGradient><radialGradient id="b" cx="-463.71" cy="855.09" r="6.99" data-name="Безымянный градиент 2" fx="-463.71" fy="855.09" gradientTransform="matrix(-126.93754 135.45874 101.23704 94.7798 -144561.83 -18444.24)" gradientUnits="userSpaceOnUse"><stop offset=".17" stop-color="#23c0fe"/><stop offset=".53" stop-color="#1c91ff"/></radialGradient><radialGradient id="c" cx="-478.67" cy="847.12" r="6.99" data-name="Безымянный градиент 3" fx="-478.67" fy="847.12" gradientTransform="matrix(-30.17956 -23.43498 -52.80172 67.93278 30509.91 -68620.88)" gradientUnits="userSpaceOnUse"><stop offset="0" stop-color="#fff"/><stop offset=".66" stop-color="#adc0ff" stop-opacity="0"/></radialGradient><radialGradient id="d" cx="-484.89" cy="847.31" r="6.99" data-name="Безымянный градиент 4" fx="-484.89" fy="847.31" gradientTransform="matrix(-33.90072 -26.53382 -39.69188 50.66325 17714.49 -55348.26)" gradientUnits="userSpaceOnUse"><stop offset="0" stop-color="#033acc"/><stop offset="1" stop-color="#368eff" stop-opacity="0"/></radialGradient><radialGradient id="e" cx="-454.42" cy="853.18" r="6.99" data-name="Безымянный градиент 5" fx="-454.42" fy="853.18" gradientTransform="matrix(38.74213 82.7056 94.03873 -44.01576 -62416.51 75114.97)" gradientUnits="userSpaceOnUse"><stop offset=".59" stop-color="#3464e3" stop-opacity="0"/><stop offset="1" stop-color="#033acc"/></radialGradient><radialGradient id="f" cx="-465.3" cy="852.63" r="6.99" data-name="Безымянный градиент 6" fx="-465.3" fy="852.63" gradientTransform="matrix(-101.35519 93.7574 146.5162 158.24743 -171232.53 -91444.13)" gradientUnits="userSpaceOnUse"><stop offset="0" stop-color="#4bfde8"/><stop offset=".54" stop-color="#4bfde8" stop-opacity="0"/></radialGradient><radialGradient id="h" cx="-445.42" cy="847.35" r="6.99" data-name="Безымянный градиент 8" fx="-445.42" fy="847.35" gradientTransform="matrix(60.3777 22.14291 39.59688 -107.87213 -6264.92 101508.79)" gradientUnits="userSpaceOnUse"><stop offset="0" stop-color="#fff"/><stop offset=".79" stop-color="#fff" stop-opacity="0"/></radialGradient><radialGradient id="i" cx="-468.67" cy="861.39" r="6.99" data-name="Безымянный градиент 9" fx="-468.67" fy="861.39" gradientTransform="matrix(-67.45933 53.77501 53.21816 66.68832 -76468.45 -32083.78)" gradientUnits="userSpaceOnUse"><stop offset="0" stop-color="#4bfde8"/><stop offset=".58" stop-color="#4bfde8" stop-opacity="0"/></radialGradient><linearGradient id="g" x1="638.67" x2="638.67" y1="2.44" y2="421.76" data-name="Безымянный градиент 7" gradientTransform="matrix(1 0 0 -1 0 617.01)" gradientUnits="userSpaceOnUse"><stop offset="0" stop-color="#0086ff"/><stop offset=".49" stop-color="#0bf"/></linearGradient></defs><path d="M276.36 94.08C123.48 94.08 9.21 209.84.6 338.79c5.33 27.79 22.83 82.65 50.24 79.84 34.26-3.52 120.56 0 194.17-123.26 53.77-90.04 164.37-201.29 31.35-201.29Z" style="fill:url(#a)"/><path d="M240.99 142.19c-51.39 75.26-120.56 183.1-143.91 217.03-27.75 40.34-101.25 23.2-95.16-34.62a237.4 237.4 0 0 0-1.38 14.19C-9.51 489.22 119.43 614.14 279.88 614.14c176.84 0 598.58-203.81 555.9-408.02C790.8 86.1 664.36 0 521.07 0S285.94 76.36 241 142.19Z" style="fill:url(#b)"/><path d="M240.99 142.19c-51.39 75.26-120.56 183.1-143.91 217.03-27.75 40.34-101.25 23.2-95.16-34.62a237.4 237.4 0 0 0-1.38 14.19C-9.51 489.22 119.43 614.14 279.88 614.14c176.84 0 598.58-203.81 555.9-408.02C790.8 86.1 664.36 0 521.07 0S285.94 76.36 241 142.19Z" style="fill-opacity:.4;fill:url(#c)"/><path d="M240.99 142.19c-51.39 75.26-120.56 183.1-143.91 217.03-27.75 40.34-101.25 23.2-95.16-34.62a237.4 237.4 0 0 0-1.38 14.19C-9.51 489.22 119.43 614.14 279.88 614.14c176.84 0 598.58-203.81 555.9-408.02C790.8 86.1 664.36 0 521.07 0S285.94 76.36 241 142.19Z" style="fill:url(#d)"/><path d="M240.99 142.19c-51.39 75.26-120.56 183.1-143.91 217.03-27.75 40.34-101.25 23.2-95.16-34.62a237.4 237.4 0 0 0-1.38 14.19C-9.51 489.22 119.43 614.14 279.88 614.14c176.84 0 598.58-203.81 555.9-408.02C790.8 86.1 664.36 0 521.07 0S285.94 76.36 241 142.19Z" style="fill:url(#e);fill-opacity:.6"/><path d="M240.99 142.19c-51.39 75.26-120.56 183.1-143.91 217.03-27.75 40.34-101.25 23.2-95.16-34.62a237.4 237.4 0 0 0-1.38 14.19C-9.51 489.22 119.43 614.14 279.88 614.14c176.84 0 598.58-203.81 555.9-408.02C790.8 86.1 664.36 0 521.07 0S285.94 76.36 241 142.19Z" style="fill-opacity:.9;fill:url(#f)"/><path d="M277.34 614.23s422.24.77 493.86.77c129.97 0 228.8-98.16 228.8-212.69s-100.8-212.1-228.8-212.1-201.7 88.57-257.06 185.25c-64.87 113.29-147.62 237.41-236.8 238.77Z" style="fill:url(#g)"/><path d="M277.34 614.23s422.24.77 493.86.77c129.97 0 228.8-98.16 228.8-212.69s-100.8-212.1-228.8-212.1-201.7 88.57-257.06 185.25c-64.87 113.29-147.62 237.41-236.8 238.77Z" style="fill:url(#h);fill-opacity:.4"/><path d="M277.34 614.23s422.24.77 493.86.77c129.97 0 228.8-98.16 228.8-212.69s-100.8-212.1-228.8-212.1-201.7 88.57-257.06 185.25c-64.87 113.29-147.62 237.41-236.8 238.77Z" style="fill:url(#i);fill-opacity:.9"/></svg><svg x="186.1" y="20.0" width="381.8" height="70" viewBox="9.834 24.936 729.053 133.682"><g fill="#5a5d63"><path d="M68.896 158.617c-17.87 0-32.183-5.889-42.935-17.666s-16.128-27.1-16.128-45.967c0-20.273 5.48-36.445 16.436-48.516s25.87-18.105 44.736-18.105c17.401 0 31.42 5.859 42.056 17.578 10.634 11.719 15.951 27.041 15.952 45.967 0 20.566-5.45 36.826-16.348 48.779-10.899 11.954-25.489 17.93-43.769 17.93zm1.055-116.894c-13.242 0-23.994 4.775-32.256 14.326s-12.393 22.09-12.393 37.617 4.028 28.022 12.085 37.485 18.56 14.194 31.51 14.194c13.827 0 24.725-4.512 32.694-13.535 7.968-9.023 11.952-21.65 11.953-37.881 0-16.641-3.868-29.502-11.602-38.584-7.735-9.081-18.399-13.622-31.99-13.622zM226.572 156.508h-14.414V105.18c0-19.102-6.973-28.652-20.918-28.652-7.207 0-13.169 2.71-17.886 8.13s-7.075 12.261-7.075 20.522v51.328h-14.414v-90h14.414v14.941h.352c6.797-11.367 16.641-17.051 29.531-17.051 9.844 0 17.373 3.179 22.588 9.536 5.214 6.357 7.821 15.542 7.822 27.554v55.02zM326.152 115.112h-63.545c.234 10.02 2.93 17.754 8.086 23.203s12.246 8.174 21.27 8.174c10.137 0 19.453-3.34 27.95-10.02v13.535c-7.91 5.742-18.37 8.613-31.378 8.613-12.715 0-22.705-4.087-29.97-12.261s-10.899-19.673-10.899-34.497c0-14.004 3.97-25.415 11.91-34.233s17.797-13.228 29.574-13.228 20.89 3.809 27.334 11.426 9.667 18.193 9.668 31.729v7.559zm-14.766-12.217c-.06-8.32-2.065-14.795-6.02-19.424s-9.449-6.943-16.48-6.943c-6.797 0-12.568 2.432-17.314 7.295s-7.676 11.221-8.789 19.072h48.603zM349.97 156.508V30.473h34.805c44.414 0 66.621 20.479 66.621 61.436 0 19.453-6.167 35.083-18.5 46.89-12.336 11.807-28.845 17.71-49.527 17.71H349.97zm14.766-112.676v99.316h18.81c16.522 0 29.384-4.424 38.583-13.271s13.8-21.387 13.8-37.617c0-32.285-17.169-48.428-51.505-48.428h-19.688zM521.181 81.098c-2.52-1.934-6.152-2.9-10.898-2.9-6.152 0-11.294 2.9-15.425 8.701s-6.196 13.711-6.196 23.73v45.879h-14.414v-90h14.414v18.545h.352c2.051-6.328 5.186-11.265 9.404-14.81s8.936-5.317 14.15-5.317c3.75 0 6.621.41 8.613 1.23v14.942zM544.208 43.657c-2.578 0-4.775-.879-6.592-2.637s-2.725-3.984-2.725-6.68.908-4.937 2.725-6.724 4.014-2.681 6.592-2.681c2.637 0 4.878.894 6.724 2.681s2.77 4.028 2.77 6.724c0 2.578-.924 4.775-2.77 6.592s-4.087 2.725-6.724 2.725zm7.032 112.851h-14.414v-90h14.414v90zM651.171 66.508l-35.859 90h-14.15l-34.102-90h15.82l22.852 65.391c1.7 4.805 2.754 8.994 3.164 12.568h.352c.586-4.512 1.523-8.584 2.812-12.217l23.906-65.742h15.205zM738.886 115.112h-63.545c.234 10.02 2.93 17.754 8.086 23.203s12.246 8.174 21.27 8.174c10.137 0 19.453-3.34 27.95-10.02v13.535c-7.91 5.742-18.37 8.613-31.378 8.613-12.715 0-22.705-4.087-29.97-12.261S660.4 126.683 660.4 111.859c0-14.004 3.97-25.415 11.91-34.233s17.797-13.228 29.574-13.228 20.89 3.809 27.334 11.426 9.668 18.193 9.668 31.729v7.559zm-14.766-12.217c-.059-8.32-2.065-14.795-6.02-19.424s-9.449-6.943-16.48-6.943c-6.797 0-12.568 2.432-17.314 7.295s-7.676 11.221-8.789 19.072h48.603z"/></g></svg></svg>